<svg width="30" height="28" viewBox="0 0 30 28" fill="none" xmlns="http://www.w3.org/2000/svg">
<path d="M29 19.7778V24.1111C29 24.8773 28.6722 25.6121 28.0888 26.1539C27.5053 26.6956 26.714 27 25.8889 27H4.11111C3.28599 27 2.49467 26.6956 1.91122 26.1539C1.32778 25.6121 1 24.8773 1 24.1111V19.7778M29 8.22222V3.88889C29 3.12271 28.6722 2.38791 28.0888 1.84614C27.5053 1.30436 26.714 1 25.8889 1H4.11111C3.28599 1 2.49467 1.30436 1.91122 1.84614C1.32778 2.38791 1 3.12271 1 3.88889V8.22222H29Z" stroke="black" stroke-width="2" stroke-linecap="round" stroke-linejoin="round"/>
<path d="M15.609 16.5999C15.9319 16.5999 16.2415 16.4629 16.4698 16.2191C16.6981 15.9753 16.8264 15.6447 16.8264 15.2999C16.8264 14.9551 16.6981 14.6244 16.4698 14.3806C16.2415 14.1368 15.9319 13.9999 15.609 13.9999C15.2861 13.9999 14.9765 14.1368 14.7482 14.3806C14.5199 14.6244 14.3916 14.9551 14.3916 15.2999C14.3916 15.6447 14.5199 15.9753 14.7482 16.2191C14.9765 16.4629 15.2861 16.5999 15.609 16.5999V16.5999Z" stroke="black" stroke-width="2" stroke-linecap="round" stroke-linejoin="round"/>
<path d="M7.08643 15.3C7.08643 15.3 10.1847 8.80002 15.6082 8.80002C21.0304 8.80002 24.1299 15.3 24.1299 15.3C24.1299 15.3 21.0304 21.8001 15.6082 21.8001C10.1847 21.8001 7.08643 15.3 7.08643 15.3Z" stroke="black" stroke-width="2" stroke-linecap="round" stroke-linejoin="round"/>
</svg>
